<?xml version="1.0" encoding="UTF-8"?><svg id="Layer_2" xmlns="http://www.w3.org/2000/svg" viewBox="0 0 629 135.43"><defs><style>.cls-1,.cls-2{fill:#3165db;}.cls-3{fill:#4e4e4e;}.cls-2{opacity:.5;}</style></defs><g id="Layer_1-2"><path class="cls-3" d="m457.71,67.25c0-3.6.62-7.12,1.87-10.58,1.25-3.46,3.07-6.61,5.48-9.46,2.41-2.85,5.35-5.12,8.84-6.81,3.49-1.69,7.44-2.53,11.87-2.53,5.26,0,9.77,1.2,13.53,3.61s6.56,5.49,8.38,9.25l-5.89,3.82c-1.16-2.49-2.64-4.47-4.44-5.93-1.8-1.46-3.74-2.5-5.81-3.11-2.08-.61-4.11-.91-6.1-.91-3.27,0-6.16.66-8.67,1.99-2.52,1.33-4.63,3.1-6.35,5.31-1.72,2.21-3,4.69-3.86,7.43-.86,2.74-1.29,5.49-1.29,8.26,0,3.04.51,5.98,1.54,8.8,1.02,2.82,2.45,5.31,4.27,7.47s3.98,3.87,6.47,5.15c2.49,1.27,5.2,1.91,8.13,1.91,2.05,0,4.15-.36,6.31-1.08,2.16-.72,4.18-1.84,6.06-3.36,1.88-1.52,3.37-3.5,4.48-5.93l6.23,3.4c-1.22,2.93-3.1,5.42-5.64,7.47-2.55,2.05-5.38,3.6-8.51,4.65-3.13,1.05-6.21,1.58-9.25,1.58-4.04,0-7.75-.87-11.12-2.61-3.38-1.74-6.29-4.07-8.76-6.97-2.46-2.9-4.37-6.17-5.73-9.79-1.36-3.62-2.03-7.29-2.03-11Z"/><path class="cls-3" d="m513.57,84.77c0-2.75.79-5.13,2.37-7.13,1.58-2.01,3.75-3.56,6.52-4.66,2.77-1.1,5.98-1.65,9.63-1.65,1.94,0,3.98.15,6.14.46,2.16.3,4.07.76,5.73,1.37v-3.14c0-3.27-1-5.85-2.99-7.73s-4.81-2.82-8.47-2.82c-2.38,0-4.66.43-6.85,1.29-2.19.86-4.5,2.09-6.93,3.69l-2.66-5.15c2.82-1.94,5.64-3.39,8.47-4.36,2.82-.97,5.75-1.45,8.8-1.45,5.53,0,9.9,1.52,13.11,4.57,3.21,3.05,4.81,7.28,4.81,12.71v18.19c0,.88.18,1.52.54,1.93.36.41.96.64,1.79.7v5.64c-.72.11-1.34.19-1.87.25-.53.05-.95.08-1.29.08-1.72,0-3-.47-3.86-1.41-.86-.94-1.34-1.94-1.45-2.99l-.17-2.74c-1.88,2.44-4.34,4.32-7.39,5.64-3.04,1.33-6.06,1.99-9.05,1.99s-5.45-.59-7.72-1.77c-2.27-1.18-4.04-2.78-5.31-4.78-1.27-2.01-1.91-4.25-1.91-6.72Zm28.22,3.04c.66-.77,1.19-1.55,1.58-2.34.39-.79.58-1.47.58-2.01v-5.34c-1.72-.66-3.51-1.16-5.4-1.52-1.88-.36-3.74-.53-5.56-.53-3.71,0-6.71.73-9.01,2.18-2.3,1.45-3.44,3.44-3.44,5.96,0,1.37.37,2.7,1.12,3.99s1.85,2.34,3.32,3.16c1.47.82,3.28,1.23,5.44,1.23,2.27,0,4.43-.45,6.47-1.35,2.05-.9,3.68-2.04,4.9-3.41Z"/><path class="cls-3" d="m583.86,60.28c-3.65.06-6.88.98-9.67,2.78-2.79,1.8-4.77,4.27-5.93,7.43v26.73h-7.3v-43.08h6.81v9.79c1.49-2.99,3.47-5.41,5.93-7.26,2.46-1.85,5.05-2.89,7.76-3.11h1.41c.39,0,.72.03,1,.08v6.64Z"/><path class="cls-3" d="m607.26,98.05c-3.27,0-6.24-.59-8.92-1.77-2.68-1.18-5.01-2.8-6.97-4.86-1.96-2.06-3.49-4.43-4.56-7.13-1.08-2.69-1.62-5.55-1.62-8.57,0-4.06.94-7.77,2.82-11.12,1.88-3.35,4.5-6.04,7.84-8.07,3.35-2.03,7.18-3.05,11.5-3.05s8.18,1.03,11.41,3.09c3.24,2.06,5.75,4.75,7.55,8.08,1.8,3.33,2.7,6.91,2.7,10.76,0,.55-.01,1.09-.04,1.61-.03.52-.07.92-.12,1.2h-35.94c.22,2.79,1.01,5.27,2.37,7.43,1.36,2.16,3.11,3.86,5.27,5.09,2.16,1.23,4.48,1.84,6.97,1.84,2.66,0,5.16-.66,7.51-1.99,2.35-1.33,3.97-3.07,4.86-5.23l6.31,1.74c-.94,2.1-2.34,3.98-4.19,5.64-1.85,1.66-4.04,2.96-6.56,3.9-2.52.94-5.24,1.41-8.18,1.41Zm-14.61-24.9h29.55c-.22-2.79-1.02-5.25-2.41-7.38-1.38-2.13-3.15-3.8-5.31-5-2.16-1.2-4.54-1.8-7.14-1.8s-4.9.6-7.05,1.8c-2.16,1.2-3.92,2.87-5.27,5-1.36,2.13-2.14,4.6-2.37,7.38Z"/><path class="cls-3" d="m221.49,97.22v-44.99l-19.42,34.61h-4.57l-19.5-34.61v44.99h-7.47v-58.93h7.88l21.33,38.26,21.41-38.26h7.8v58.93h-7.47Z"/><path class="cls-3" d="m239.07,45.76v-9.13h7.3v9.13h-7.3Zm0,51.46v-43.33h7.3v43.33h-7.3Z"/><path class="cls-3" d="m293.02,97.22h-7.3v-24.02c0-4.55-.71-7.88-2.12-9.99-1.41-2.11-3.56-3.17-6.43-3.17-1.99,0-3.97.49-5.93,1.48-1.96.98-3.71,2.31-5.23,3.98-1.52,1.67-2.61,3.6-3.28,5.78v25.95h-7.3v-43.08h6.64v9.3c1.16-2.03,2.66-3.79,4.48-5.27,1.83-1.48,3.9-2.64,6.23-3.46,2.32-.82,4.76-1.24,7.3-1.24s4.58.45,6.27,1.36c1.69.91,3.02,2.17,3.98,3.79.97,1.62,1.66,3.53,2.08,5.73.42,2.2.62,4.59.62,7.17v25.7Z"/><path class="cls-3" d="m299.82,75.8c0-4.06.84-7.79,2.53-11.16,1.69-3.38,4.01-6.08,6.97-8.12,2.96-2.03,6.35-3.05,10.17-3.05,3.49,0,6.61.91,9.38,2.74,2.77,1.83,4.92,4.04,6.47,6.64v-26.23h7.3v52.29c0,.89.18,1.54.54,1.95.36.42.96.65,1.79.71v5.64c-1.38.22-2.46.33-3.24.33-1.44,0-2.7-.5-3.78-1.49s-1.62-2.1-1.62-3.32v-3.65c-1.72,2.77-4.01,4.95-6.89,6.56-2.88,1.6-5.87,2.41-8.96,2.41s-5.74-.59-8.26-1.77c-2.52-1.18-4.7-2.81-6.56-4.9-1.85-2.09-3.29-4.46-4.32-7.13-1.02-2.66-1.54-5.48-1.54-8.44Zm35.52,6.33v-12.32c-.66-1.86-1.74-3.55-3.24-5.05-1.49-1.51-3.17-2.71-5.02-3.62-1.85-.9-3.69-1.35-5.52-1.35-2.16,0-4.11.45-5.85,1.35-1.74.9-3.24,2.11-4.48,3.62-1.25,1.51-2.2,3.22-2.86,5.13-.66,1.92-1,3.92-1,6s.37,4.16,1.12,6.08,1.8,3.62,3.15,5.09c1.36,1.48,2.93,2.63,4.73,3.45,1.8.82,3.75,1.23,5.85,1.23,1.33,0,2.7-.25,4.11-.74,1.41-.49,2.75-1.18,4.03-2.05,1.27-.88,2.35-1.9,3.24-3.08.88-1.18,1.46-2.42,1.74-3.74Z"/><path class="cls-3" d="m355.34,97.22v-37.6h-5.89v-5.73h5.89v-.91c0-3.54.54-6.6,1.62-9.17,1.08-2.57,2.61-4.55,4.61-5.93,1.99-1.38,4.34-2.08,7.05-2.08,1.71,0,3.4.24,5.06.71,1.66.47,3.15,1.12,4.48,1.95l-1.83,5.39c-.78-.55-1.73-1-2.86-1.33-1.13-.33-2.25-.5-3.36-.5-2.38,0-4.22.93-5.52,2.78-1.3,1.85-1.95,4.5-1.95,7.93v1.16h11.54v5.73h-11.54v37.6h-7.3Z"/><path class="cls-3" d="m380.32,79.97v-25.83h7.3v24.41c0,4.4.77,7.7,2.32,9.89,1.55,2.2,3.84,3.3,6.89,3.3,1.99,0,3.91-.42,5.77-1.28,1.85-.85,3.53-2.07,5.02-3.66,1.49-1.59,2.66-3.48,3.49-5.68v-26.99h7.3v34.8c0,.88.18,1.53.54,1.94.36.41.96.65,1.79.7v5.64c-.83.11-1.48.18-1.95.21-.47.03-.93.04-1.37.04-1.38,0-2.57-.43-3.57-1.28-1-.85-1.52-1.91-1.58-3.18l-.17-5.03c-1.88,3.19-4.41,5.67-7.59,7.43-3.18,1.76-6.65,2.64-10.42,2.64-4.54,0-7.97-1.53-10.29-4.58-2.32-3.05-3.49-7.55-3.49-13.49Z"/><path class="cls-3" d="m427.96,36.63h7.3v49.61c0,2.39.33,3.86,1,4.42s1.47.83,2.41.83c1.16,0,2.27-.12,3.32-.37,1.05-.25,1.94-.51,2.66-.79l1.16,5.98c-1.22.5-2.66.91-4.32,1.25-1.66.33-3.13.5-4.4.5-2.82,0-5.05-.81-6.68-2.42-1.63-1.61-2.45-3.86-2.45-6.75v-52.25Z"/><path id="Path_29666" class="cls-2" d="m46.99,114.71c.08,11.53,9.49,20.8,21.01,20.72,11.41-.08,20.64-9.31,20.72-20.72v-12.48c0-7.58,6.15-13.73,13.73-13.73h12.41c11.53.08,20.93-9.2,21.01-20.72s-9.2-20.93-20.72-21.01c-.1,0-.19,0-.29,0h-47c-11.51.03-20.84,9.36-20.87,20.87v47.08Z"/><path id="Path_29665" class="cls-1" d="m88.89,20.72C88.81,9.2,79.4-.08,67.87,0c-11.41.08-20.65,9.31-20.72,20.72v12.48c0,7.58-6.14,13.73-13.73,13.74h-12.41C9.49,46.86.08,56.14,0,67.66c-.08,11.53,9.2,20.93,20.72,21.01.1,0,.19,0,.29,0h47c11.51-.03,20.84-9.35,20.87-20.87V20.72Z"/></g></svg>