<svg xmlns="http://www.w3.org/2000/svg" class="w-[18px] h-auto" width="14" height="16" viewBox="0 0 14 16" fill="none">
                      <path fill-rule="evenodd" clip-rule="evenodd" d="M6 1C6 0.734784 6.10536 0.48043 6.29289 0.292893C6.48043 0.105357 6.73478 0 7 0C7.26522 0 7.51957 0.105357 7.70711 0.292893C7.89464 0.48043 8 0.734784 8 1V6.5C8 6.63261 8.05268 6.75979 8.14645 6.85355C8.24021 6.94732 8.36739 7 8.5 7C8.63261 7 8.75979 6.94732 8.85355 6.85355C8.94732 6.75979 9 6.63261 9 6.5V2C9 1.73478 9.10536 1.48043 9.29289 1.29289C9.48043 1.10536 9.73478 1 10 1C10.2652 1 10.5196 1.10536 10.7071 1.29289C10.8946 1.48043 11 1.73478 11 2V6.5C11 6.63261 11.0527 6.75979 11.1464 6.85355C11.2402 6.94732 11.3674 7 11.5 7C11.6326 7 11.7598 6.94732 11.8536 6.85355C11.9473 6.75979 12 6.63261 12 6.5V4C12 3.73478 12.1054 3.48043 12.2929 3.29289C12.4804 3.10536 12.7348 3 13 3C13.2652 3 13.5196 3.10536 13.7071 3.29289C13.8946 3.48043 14 3.73478 14 4V9C14 9.91925 13.8189 10.8295 13.4672 11.6788C13.1154 12.5281 12.5998 13.2997 11.9497 13.9497C11.2997 14.5998 10.5281 15.1154 9.67878 15.4672C8.8295 15.8189 7.91925 16 7 16C6.08075 16 5.1705 15.8189 4.32122 15.4672C3.47194 15.1154 2.70026 14.5998 2.05025 13.9497C1.40024 13.2997 0.884626 12.5281 0.532843 11.6788C0.18106 10.8295 -1.36979e-08 9.91925 0 9V7C0 6.73478 0.105357 6.48043 0.292893 6.29289C0.48043 6.10536 0.734784 6 1 6C1.26522 6 1.51957 6.10536 1.70711 6.29289C1.89464 6.48043 2 6.73478 2 7V9.5C2 9.63261 2.05268 9.75979 2.14645 9.85355C2.24021 9.94732 2.36739 10 2.5 10C2.63261 10 2.75979 9.94732 2.85355 9.85355C2.94732 9.75979 3 9.63261 3 9.5V2C3 1.73478 3.10536 1.48043 3.29289 1.29289C3.48043 1.10536 3.73478 1 4 1C4.26522 1 4.51957 1.10536 4.70711 1.29289C4.89464 1.48043 5 1.73478 5 2V6.5C5 6.63261 5.05268 6.75979 5.14645 6.85355C5.24021 6.94732 5.36739 7 5.5 7C5.63261 7 5.75979 6.94732 5.85355 6.85355C5.94732 6.75979 6 6.63261 6 6.5V1Z" fill="white"></path>
                    </svg>