<svg width="136" height="136" viewBox="0 0 136 136" fill="none" xmlns="http://www.w3.org/2000/svg">
<path opacity="0.5" d="M46.99 114.71C47.07 126.24 56.48 135.51 68 135.43C79.41 135.35 88.64 126.12 88.72 114.71V102.23C88.72 94.65 94.87 88.5 102.45 88.5H114.86C126.39 88.58 135.79 79.3 135.87 67.78C135.95 56.26 126.67 46.85 115.15 46.77C115.05 46.77 114.96 46.77 114.86 46.77H67.86C56.35 46.8 47.02 56.13 46.99 67.64V114.72V114.71Z" fill="#3165DB"/>
<path d="M88.89 20.72C88.81 9.20002 79.4 -0.0799749 67.87 2.50963e-05C56.46 0.0800251 47.22 9.31002 47.15 20.72V33.2C47.15 40.78 41.01 46.93 33.42 46.94H21.01C9.49002 46.86 0.0800251 56.14 2.50963e-05 67.66C-0.0799749 79.19 9.20002 88.59 20.72 88.67C20.82 88.67 20.91 88.67 21.01 88.67H68.01C79.52 88.64 88.85 79.32 88.88 67.8V20.72H88.89Z" fill="#3165DB"/>
</svg>
